<svg xmlns="http://www.w3.org/2000/svg" width="620" height="760" viewBox="0 0 620 760" role="img" aria-labelledby="title desc">
  <title id="title">Arak vending machine rental visual</title>
  <desc id="desc">A black vending machine with red, green, and yellow accent strips.</desc>
  <rect width="620" height="760" fill="#f5f5f7"/>
  <ellipse cx="314" cy="704" rx="190" ry="30" fill="#000" opacity="0.16"/>
  <rect x="156" y="58" width="312" height="618" rx="28" fill="#101012"/>
  <rect x="176" y="82" width="272" height="570" rx="18" fill="#1d1d1f" stroke="#3a3a3c" stroke-width="2"/>
  <rect x="198" y="112" width="156" height="396" rx="14" fill="#e8ebef"/>
  <rect x="214" y="132" width="124" height="58" rx="8" fill="#ffffff"/>
  <rect x="214" y="210" width="124" height="58" rx="8" fill="#ffffff"/>
  <rect x="214" y="288" width="124" height="58" rx="8" fill="#ffffff"/>
  <rect x="214" y="366" width="124" height="58" rx="8" fill="#ffffff"/>
  <g opacity="0.95">
    <circle cx="242" cy="162" r="18" fill="#e31b23"/>
    <rect x="273" y="147" width="42" height="30" rx="8" fill="#f4c400"/>
    <rect x="229" y="226" width="36" height="28" rx="7" fill="#149447"/>
    <circle cx="303" cy="240" r="17" fill="#e31b23"/>
    <rect x="224" y="304" width="45" height="28" rx="7" fill="#f4c400"/>
    <rect x="286" y="302" width="36" height="32" rx="8" fill="#149447"/>
    <circle cx="248" cy="396" r="18" fill="#f4c400"/>
    <rect x="285" y="381" width="38" height="30" rx="8" fill="#e31b23"/>
  </g>
  <rect x="376" y="116" width="48" height="116" rx="12" fill="#050506" stroke="#404044" stroke-width="2"/>
  <rect x="386" y="130" width="28" height="28" rx="6" fill="#149447"/>
  <circle cx="400" cy="188" r="14" fill="#2b2b2f" stroke="#f4c400" stroke-width="3"/>
  <rect x="374" y="264" width="54" height="164" rx="14" fill="#0a0a0b" stroke="#404044" stroke-width="2"/>
  <rect x="386" y="284" width="30" height="8" rx="4" fill="#e31b23"/>
  <rect x="386" y="308" width="30" height="8" rx="4" fill="#149447"/>
  <rect x="386" y="332" width="30" height="8" rx="4" fill="#f4c400"/>
  <rect x="210" y="540" width="204" height="56" rx="12" fill="#050506" stroke="#404044" stroke-width="2"/>
  <path d="M214 606h196" stroke="#2d2d31" stroke-width="16" stroke-linecap="round"/>
  <rect x="176" y="82" width="272" height="570" rx="18" fill="url(#shine)" opacity="0.38"/>
  <defs>
    <linearGradient id="shine" x1="180" y1="90" x2="442" y2="640" gradientUnits="userSpaceOnUse">
      <stop stop-color="#ffffff" stop-opacity="0.44"/>
      <stop offset="0.28" stop-color="#ffffff" stop-opacity="0"/>
      <stop offset="1" stop-color="#000000" stop-opacity="0.12"/>
    </linearGradient>
  </defs>
</svg>
